<?xml version="1.0" encoding="utf-8"?>
<!-- Generator: Adobe Illustrator 19.2.1, SVG Export Plug-In . SVG Version: 6.00 Build 0)  -->
<svg version="1.1" id="Layer_1" xmlns="http://www.w3.org/2000/svg" xmlns:xlink="http://www.w3.org/1999/xlink" x="0px" y="0px"
	 viewBox="0 0 50 50" style="enable-background:new 0 0 50 50;" xml:space="preserve">
<style type="text/css">
	.st0{fill:#FFFFFF;}
</style>
<g>
	<path class="st0" d="M30.5,24.5c-1,0-2,0.2-3,0.3C26.6,25,25.8,25,25,25s-1.6,0-2.5-0.2c-1-0.1-2-0.3-3-0.3c-2.5,0-4,2.1-4,4.5
		c0,4.8,4.4,5.5,8.2,5.5h2.6c3.8,0,8.2-0.7,8.2-5.5C34.5,26.6,33,24.5,30.5,24.5z M20,32c-1.4,0-2-1.9-2-3s0.6-3,2-3s2,1.9,2,3
		S21.4,32,20,32z M30,32c-1.4,0-2-1.9-2-3s0.6-3,2-3s2,1.9,2,3S31.4,32,30,32z"/>
	<path class="st0" d="M25,0C11.2,0,0,11.2,0,25s11.2,25,25,25s25-11.2,25-25S38.8,0,25,0z M37,31.4C35,35.6,29.3,36,25.2,36
		c-4.1,0-10.1-0.4-12.3-4.6c-0.8-1.6-1-3.4-1-5.2c0-2.3,0.6-4.4,2.1-6.2c-0.3-0.9-0.4-1.8-0.4-2.7c0-1.2,0.3-2.3,0.8-3.4
		c2.5,0,4,1.1,5.9,2.5c1.6-0.4,3.2-0.5,4.8-0.5c1.5,0,3,0.2,4.4,0.5c1.9-1.5,3.4-2.5,5.9-2.5c0.5,1.1,0.8,2.2,0.8,3.4
		c0,0.9-0.1,1.8-0.4,2.6c1.5,1.8,2.1,3.9,2.1,6.2C38,28,37.8,29.8,37,31.4z"/>
</g>
</svg>
