<?xml version="1.0" encoding="utf-8"?>
<!-- Generator: Adobe Illustrator 19.2.1, SVG Export Plug-In . SVG Version: 6.00 Build 0)  -->
<svg version="1.1" id="Layer_1" xmlns="http://www.w3.org/2000/svg" xmlns:xlink="http://www.w3.org/1999/xlink" x="0px" y="0px"
	 viewBox="0 0 50 50" style="enable-background:new 0 0 50 50;" xml:space="preserve">
<style type="text/css">
	.st0{fill:#FFFFFF;}
</style>
<path class="st0" d="M25,0C11.2,0,0,11.2,0,25s11.2,25,25,25s25-11.2,25-25S38.8,0,25,0z M19.5,34.1h-5.2V18.7h5.2V34.1z M16.9,16.5
	L16.9,16.5c-1.8,0-2.9-1.2-2.9-2.7c0-1.5,1.2-2.7,2.9-2.7c1.8,0,2.9,1.2,2.9,2.7C19.8,15.4,18.7,16.5,16.9,16.5z M38,34.1h-5.1v-8.3
	c0-2.1-0.8-3.5-2.6-3.5c-1.4,0-2.3,1-2.6,1.9c-0.1,0.3-0.2,0.8-0.2,1.3v8.6h-5.1c0.1-14,0-15.5,0-15.5h5.1v2.2
	c0.7-1.1,1.9-2.6,4.6-2.6c3.4,0,5.9,2.2,5.9,7V34.1z"/>
</svg>
