<?xml version="1.0" encoding="iso-8859-1"?>
<!-- Generator: Adobe Illustrator 19.0.0, SVG Export Plug-In . SVG Version: 6.00 Build 0)  -->
<svg version="1.1" id="Layer_1" xmlns="http://www.w3.org/2000/svg" xmlns:xlink="http://www.w3.org/1999/xlink" x="0px" y="0px"
	 viewBox="0 0 574 86" style="enable-background:new 0 0 574 86;" xml:space="preserve">
<g>
	<path style="fill-rule:evenodd;clip-rule:evenodd;fill:#999999;" d="M41.946,14.5c12.666,0,22.932,10.267,22.932,22.932
		c0,12.666-10.267,22.932-22.932,22.932c-12.665,0-22.932-10.267-22.932-22.932C19.014,24.767,29.281,14.5,41.946,14.5L41.946,14.5z
		 M54.871,37.561c0.103-0.092,0.023,0.033,0.1-0.15l0.185-0.647c0.996-0.031,1.683-0.107,2.487-0.427l1.656-1.135
		c-0.549-0.007-1.125,0.141-2.017,0.003l-1.808-0.379c0.148-0.095,0.378-0.097,0.589-0.129c0.217-0.033,0.404-0.062,0.618-0.111
		c0.417-0.098,0.723-0.191,1.072-0.353l1.39-1.358c-0.635,0.25-1.208,0.354-2.064,0.363c-0.416,0.004-1.925-0.02-2.064-0.391
		c-0.166-0.44-0.164-0.856-0.51-1.68c-0.221-0.526-0.494-1.028-0.8-1.48c-0.63-0.931-1.41-1.705-2.332-2.299l-3.807-1.066
		c0.238-0.229,1.135-0.41,1.46-0.497c1.697-0.453,1.55-1.073,1.139-1.188c-0.524-0.147-1.804,0.335-2.375,0.51l1.025-1.087
		c-1.067,0.1-1.765,0.632-2.563,1.124l0.332-0.816c-1.006,0.337-2.821,2.735-3.324,3.695l-2.13,4.672
		c-0.182-0.074-1.441-1.366-2.404-1.941c-0.841-0.502-1.963-1.039-2.928-1.485c-2.323-1.076-3.983-1.73-6.361-2.6
		c-0.119,2.089,1.222,3.236,2.893,4.36l-2.038,0.268c0.035,0.892,0.724,1.821,1.247,2.266c0.951,0.812,1.449,0.815,2.321,1.145
		l0.18,0.093c-1.406,0.243-0.986,0.088-2.207,0.879c0.015,0.556,1.225,1.738,2.138,1.941l2.032,0.264
		c-0.141,0.129-0.36,0.22-0.526,0.326c-0.207,0.133-0.293,0.212-0.442,0.392c-0.281,0.34-0.426,0.726-0.243,1.196l2.353,1.072
		c-0.126,0.249-0.894,0.867-1.152,1.046c-1.408,0.975-2.991,1.66-5.008,1.749c-1.434,0.063-2.822-0.21-3.918-0.648
		c-1.265-0.506-1.782-0.929-2.747-1.674c0.283,0.487,0.924,1.16,1.315,1.574c3.69,3.913,9.659,6.073,15.899,4.959
		c3.81-0.681,6.265-1.995,8.497-3.626c0.368-0.269,1.244-1.055,1.559-1.38c0.97-1,1.833-2.072,2.464-3.311
		C54.245,39.226,54.9,37.938,54.871,37.561L54.871,37.561z"/>
	<path style="fill-rule:evenodd;clip-rule:evenodd;fill:#999999;" d="M164.152,14.5c12.665,0,22.932,10.267,22.932,22.932
		c0,12.666-10.267,22.932-22.932,22.932c-12.665,0-22.932-10.267-22.932-22.932C141.22,24.767,151.487,14.5,164.152,14.5
		L164.152,14.5z M160.756,37.448c0.067,0.084,0.029,0.669,0.029,0.778l0.003,12.345h5.352c0.032-3.249,0.001-6.584,0.001-9.849
		c0-0.047-0.01-3.162,0.004-3.228c0.01-0.042,0.012-0.037,0.023-0.055c0.007,0.001,3.405,0.028,3.523-0.001l0.06-0.017l0.47-4.505
		l-4.062-0.001c-0.016-0.665,0.003-1.349,0.004-2.017c0-0.609-0.014-1.362,0.348-1.696l3.689-0.371l-0.006-4.52
		c-0.699-0.042-1.526-0.004-2.239-0.004c-0.741,0-1.492-0.015-2.22,0.033c-1.39,0.092-2.511,0.506-3.323,1.197
		c-1.175,1.885-1.63,0.266-1.64,7.378l-2.689,0.001l0.005,4.526L160.756,37.448L160.756,37.448z"/>
	<path style="fill-rule:evenodd;clip-rule:evenodd;fill:#999999;" d="M347.152,14.5c-12.665,0-22.933,10.267-22.933,22.932
		c0,12.666,10.268,22.932,22.933,22.932c12.665,0,22.932-10.267,22.932-22.932C370.084,24.767,359.817,14.5,347.152,14.5z
		 M352.283,29.44c1.316,0.002,2.383,1.07,2.389,2.395c0.007,1.314-1.069,2.389-2.391,2.389c-1.337,0-2.407-1.063-2.406-2.391
		C349.875,30.506,350.949,29.439,352.283,29.44z M342.146,29.44c1.285,0.007,2.336,1.092,2.33,2.406
		c-0.005,1.331-1.063,2.381-2.393,2.378c-1.354-0.003-2.399-1.071-2.392-2.44C339.699,30.477,340.794,29.433,342.146,29.44z
		 M358.918,46.417c-0.536-0.02-0.949-0.281-1.222-0.747c-0.342-0.586-0.678-1.177-1.017-1.765c-0.034-0.059-0.072-0.115-0.108-0.174
		c-0.405,0.358-0.777,0.719-1.182,1.041c-1.502,1.193-3.223,1.917-5.087,2.321c-1.118,0.242-2.252,0.354-3.395,0.328
		c-2.491-0.058-4.845-0.626-6.985-1.944c-0.689-0.423-1.319-0.92-1.889-1.494c-0.084-0.083-0.155-0.179-0.251-0.292
		c-0.061,0.096-0.099,0.151-0.132,0.208c-0.354,0.602-0.697,1.209-1.062,1.805c-0.31,0.505-0.78,0.754-1.369,0.71
		c-0.571-0.042-0.996-0.343-1.233-0.872c-0.215-0.478-0.158-0.944,0.105-1.394c0.738-1.257,1.475-2.517,2.211-3.776
		c0.252-0.43,0.5-0.862,0.757-1.29c0.32-0.533,0.914-0.817,1.49-0.724c0.616,0.1,1.086,0.537,1.218,1.163
		c0.083,0.385,0.013,0.752-0.195,1.094c-0.229,0.379-0.225,0.382,0.052,0.732c0.813,1.03,1.868,1.731,3.06,2.242
		c1.078,0.462,2.205,0.728,3.373,0.833c1.927,0.173,3.791-0.078,5.575-0.834c1.271-0.539,2.38-1.302,3.207-2.435
		c0.107-0.146,0.127-0.254,0.021-0.41c-0.277-0.41-0.402-0.856-0.246-1.346c0.189-0.592,0.601-0.951,1.207-1.033
		c0.631-0.085,1.144,0.164,1.469,0.718c0.664,1.128,1.31,2.267,1.962,3.401c0.339,0.589,0.69,1.171,1.012,1.769
		C360.811,45.261,360.065,46.461,358.918,46.417z"/>
	<g>
		<path style="fill:#999999;" d="M407.469,33.004c4.186-0.05,4.136-6.699-0.34-6.384C402.888,26.919,403.2,33.057,407.469,33.004z"
			/>
		<path style="fill:#999999;" d="M407.944,14.5c-12.665,0-22.933,10.267-22.933,22.932c0,12.666,10.268,22.932,22.933,22.932
			c12.665,0,22.932-10.267,22.932-22.932C430.876,24.767,420.609,14.5,407.944,14.5z M399.572,28.481
			c0.712-4.694,5.247-7.033,9.089-6.377c4.524,0.773,6.987,4.933,6.441,8.767C413.625,41.252,398.002,38.822,399.572,28.481z
			 M415.474,51.406c-1.53,1.558-3.163,0.125-4.353-1.02c-1.022-0.984-2.25-2.217-3.32-3.055c-2.792,2.943-5.06,6.478-7.352,4.522
			c-2.747-2.346,2.647-5.785,3.963-7.812c-1.37-0.306-3.678-1.05-4.764-1.876c-1.089-0.83-1.289-2.735,0.026-3.679
			c1.577-1.134,2.636,0.115,4.498,0.716c7.055,2.271,9.784-4.091,11.872-0.362c1.78,3.181-4.277,4.585-5.003,5.076
			C413.952,46.703,417.683,49.161,415.474,51.406z"/>
	</g>
	<g>
		<path style="fill-rule:evenodd;clip-rule:evenodd;fill:#999999;" d="M224.96,42.074c2.584-0.005,4.65-2.092,4.631-4.679
			c-0.02-2.587-2.115-4.659-4.686-4.638c-2.542,0.022-4.599,2.107-4.595,4.66C220.312,40.015,222.375,42.081,224.96,42.074z"/>
		<path style="fill-rule:evenodd;clip-rule:evenodd;fill:#999999;" d="M225.493,44.951c-2.109,0.143-3.995-0.486-5.562-1.915
			c-2.188-1.998-2.879-4.515-2.339-7.41c-0.683,0-1.304,0-1.956,0c-0.018,0.146-0.041,0.255-0.041,0.364
			c-0.002,3.22-0.008,6.436,0.003,9.656c0.001,0.814,0.327,1.113,1.192,1.115c5.439,0.007,10.878,0.007,16.319-0.002
			c0.924,0,1.18-0.288,1.182-1.248c0.002-3.082,0-6.164,0-9.246c0-0.216,0-0.432,0-0.652c-0.717,0-1.324,0-1.982,0
			C233.315,40.977,229.515,44.674,225.493,44.951z"/>
		<path style="fill-rule:evenodd;clip-rule:evenodd;fill:#999999;" d="M224.945,14.432c-12.601,0-22.817,10.297-22.817,23
			c0,12.703,10.215,23,22.817,23c12.6,0,22.816-10.297,22.816-23C247.762,24.73,237.545,14.432,224.945,14.432z M237.179,46.595
			c0,1.843-1.146,3.048-2.994,3.054c-6.164,0.02-12.327,0.02-18.491-0.004c-1.82-0.007-2.969-1.173-2.975-3.004
			c-0.019-6.142-0.018-12.282-0.001-18.424c0.005-1.876,1.206-3.013,3.099-3.015c3.036-0.002,6.074,0,9.108,0
			c3.061,0,6.119-0.002,9.178,0c1.887,0.002,3.074,1.165,3.076,3.036C237.186,34.357,237.186,40.475,237.179,46.595z"/>
		<path style="fill-rule:evenodd;clip-rule:evenodd;fill:#999999;" d="M230.647,32.691c0.432,0.008,0.859,0.001,1.287,0
			c0.453,0,0.906,0.004,1.355,0c0.627-0.007,0.98-0.332,0.994-0.953c0.021-0.904,0.021-1.807,0-2.71
			c-0.012-0.584-0.332-0.925-0.936-0.933c-0.902-0.011-1.807-0.009-2.711,0c-0.592,0.004-0.934,0.305-0.943,0.909
			c-0.012,0.927-0.016,1.852,0.002,2.779C229.708,32.386,230.061,32.677,230.647,32.691z"/>
	</g>
	<path style="fill-rule:evenodd;clip-rule:evenodd;fill:#999999;" d="M102.389,14.432c-12.602,0-22.817,10.297-22.817,23
		c0,12.703,10.215,23,22.817,23c12.6,0,22.816-10.297,22.816-23C125.205,24.73,114.988,14.432,102.389,14.432z M113.566,39.779
		c1.919,1.767,3.257,3.206,4.015,4.317c0.354,0.556,0.467,1.048,0.341,1.477c-0.126,0.429-0.417,0.644-0.871,0.644l-4.999,0.227
		c-0.707,0.051-1.566-0.379-2.575-1.288c-1.01-0.909-1.692-1.667-2.045-2.272c-0.202-0.353-0.568-0.555-1.098-0.606
		c-0.53-0.05-0.871,0.202-1.023,0.758l-0.152,1.969c-0.05,0.404-0.202,0.707-0.454,0.909c-0.253,0.202-0.467,0.316-0.644,0.341
		c-0.177,0.025-0.467,0.063-0.872,0.114c-1.313,0.05-2.461-0.013-3.446-0.19c-0.985-0.177-1.881-0.543-2.689-1.098
		c-0.808-0.556-1.452-1.061-1.932-1.516c-0.479-0.455-1.174-1.187-2.083-2.196c-2.474-3.535-4.317-6.59-5.529-9.165
		c-0.455-1.01-0.707-1.869-0.758-2.575c0.202-0.202,0.581-0.328,1.137-0.379c0.556-0.05,1.363-0.063,2.423-0.038
		c1.06,0.026,1.691,0.038,1.893,0.038c0.505-0.05,0.909,0.228,1.212,0.834c1.262,2.827,2.5,5.024,3.711,6.589
		c0.808,0.757,1.338,0.631,1.591-0.379c0.102,0,0.152-1.237,0.152-3.711c0.05-1.566-0.581-2.55-1.894-2.954
		c0.303-0.808,1.363-1.212,3.181-1.212c0.454,0,1.01,0.025,1.666,0.075c0.656,0.051,1.01,0.076,1.06,0.076
		c1.516,0,2.273,0.605,2.273,1.818c-0.001,0.151-0.025,0.518-0.076,1.098c-0.051,0.581-0.089,1.136-0.114,1.667
		c-0.025,0.53-0.038,1.085-0.038,1.667c0,0.581,0.076,1.073,0.228,1.477c0.151,0.404,0.354,0.656,0.606,0.757
		c0.277-0.202,0.543-0.392,0.795-0.568c0.253-0.177,0.518-0.467,0.796-0.872c0.278-0.404,0.492-0.707,0.643-0.909
		c0.151-0.202,0.378-0.581,0.682-1.136c0.303-0.556,0.48-0.909,0.53-1.061c0.05-0.151,0.227-0.542,0.53-1.174
		c0.303-0.631,0.455-0.947,0.455-0.947l0.113-0.227c0.202-0.454,0.367-0.719,0.493-0.795c0.126-0.076,0.442-0.114,0.947-0.114h4.696
		c0.555,0,0.884,0.013,0.984,0.038c0.101,0.025,0.253,0.139,0.455,0.341c0.354,0.455,0.038,1.439-0.947,2.954
		c-0.984,1.515-1.931,2.777-2.84,3.788C112.834,37.784,112.658,38.92,113.566,39.779z"/>
	<g>
		<path style="fill-rule:evenodd;clip-rule:evenodd;fill:#999999;" d="M283.548,32.191c0.289-0.654,0.41-1.336,0.415-2.049
			c-0.061-1.777-0.619-3.344-1.984-4.55c-0.639-0.564-1.383-0.911-2.258-0.833c-1.131,0.101-1.837,0.791-2.273,1.781
			c-0.447,1.012-0.509,2.074-0.297,3.15c0.285,1.462,0.922,2.728,2.143,3.635C280.879,34.504,282.748,33.996,283.548,32.191z"/>
		<path style="fill-rule:evenodd;clip-rule:evenodd;fill:#999999;" d="M283.864,40.304c-1.211-0.592-2.5-0.754-3.824-0.587
			c-1.355,0.172-2.584,0.655-3.594,1.611c-1.582,1.498-1.531,3.611,0.143,5.003c1.131,0.939,2.483,1.252,3.92,1.269
			c0.086,0,0.171,0.004,0.257,0c1.59-0.081,3.045-0.534,4.217-1.655c0.978-0.938,1.444-2.067,1.001-3.422
			C285.635,41.458,284.839,40.78,283.864,40.304z"/>
		<path style="fill-rule:evenodd;clip-rule:evenodd;fill:#999999;" d="M286.863,13.432c-12.602,0-22.817,10.297-22.817,23
			c0,12.703,10.216,23,22.817,23c12.6,0,22.816-10.297,22.816-23C309.68,23.73,299.463,13.432,286.863,13.432z M285.978,47.752
			c-1.194,0.788-2.514,1.234-3.915,1.443c-1.993,0.296-3.973,0.246-5.901-0.392c-1.346-0.446-2.529-1.141-3.226-2.446
			c-0.976-1.834-0.838-4.744,1.656-6.213c1.283-0.756,2.674-1.151,4.132-1.33c0.779-0.097,1.567-0.117,2.352-0.172
			c0.056-0.004,0.11-0.012,0.183-0.02c-0.019-0.472-0.177-0.869-0.558-1.134c-0.31-0.216-0.411-0.492-0.399-0.851
			c0.015-0.417,0.003-0.833,0.003-1.321c-0.483,0-0.946,0.034-1.402-0.006c-1.231-0.108-2.371-0.473-3.338-1.288
			c-0.754-0.636-1.213-1.446-1.443-2.391c-0.316-1.289-0.307-2.577,0.113-3.84c0.477-1.433,1.467-2.438,2.773-3.141
			c1.465-0.787,3.041-1.147,4.698-1.152c2.154-0.006,4.308-0.001,6.461-0.001c0.076,0,0.15,0,0.238,0
			c0.013,0.279-0.153,0.432-0.362,0.494c-0.452,0.135-0.913,0.24-1.373,0.338c-0.415,0.089-0.838,0.148-1.254,0.235
			c-0.098,0.02-0.184,0.104-0.304,0.178c0.095,0.07,0.143,0.117,0.199,0.143c1.024,0.488,1.595,1.312,1.766,2.418
			c0.16,1.025,0.217,2.055,0.057,3.086c-0.169,1.096-0.723,1.984-1.518,2.729c-0.436,0.408-0.897,0.79-1.346,1.184
			c-0.043,0.037-0.087,0.074-0.129,0.113c-0.803,0.752-0.837,1.461-0.041,2.216c0.674,0.638,1.411,1.21,2.103,1.829
			c0.798,0.713,1.483,1.513,1.884,2.529C288.899,43.051,288.329,46.201,285.978,47.752z M301.352,29.745
			c-1.547,0.005-3.093,0.008-4.639,0.014c-0.616,0.002-0.536-0.055-0.537,0.526c-0.004,1.385-0.001,2.77,0,4.155
			c0,0.103,0,0.206,0,0.33c-0.329,0-0.626,0-0.978,0c0-0.229,0-0.451,0-0.675c0.001-1.338-0.003-2.675,0.01-4.013
			c0.002-0.248-0.066-0.327-0.318-0.326c-1.432,0.009-2.865,0.004-4.297,0.003c-0.14,0-0.277,0-0.434,0c0-0.429,0-0.815,0-1.24
			c1.666,0,3.33,0,5.032,0c0-1.627,0-3.215,0-4.823c0.339,0,0.638,0,0.966,0c0.008,0.139,0.021,0.268,0.021,0.396
			c0,1.366,0.004,2.733-0.008,4.098c-0.003,0.247,0.064,0.328,0.316,0.326c1.566-0.01,3.132-0.005,4.697-0.006
			c0.056,0,0.112-0.012,0.169-0.018C301.352,28.91,301.352,29.328,301.352,29.745z"/>
	</g>
	<g>
		<path style="fill-rule:evenodd;clip-rule:evenodd;fill:#999999;" d="M465.743,41.086c2.343-1.258,4.645-2.494,6.987-3.752
			c-2.355-1.263-4.661-2.5-6.987-3.749C465.743,36.103,465.743,38.572,465.743,41.086z"/>
		<path style="fill-rule:evenodd;clip-rule:evenodd;fill:#999999;" d="M468.668,14.432c-12.602,0-22.817,10.297-22.817,23
			c0,12.703,10.216,23,22.817,23c12.6,0,22.816-10.297,22.816-23C491.484,24.73,481.268,14.432,468.668,14.432z M481.133,43.493
			c-0.208,1.336-1.287,2.506-2.564,2.742c-0.461,0.085-0.938,0.088-1.409,0.116c-3.778,0.229-7.558,0.417-11.344,0.263
			c-2.246-0.092-4.49-0.227-6.734-0.353c-1.377-0.077-2.649-1.271-2.877-2.737c-0.375-2.421-0.511-4.861-0.439-7.311
			c0.049-1.656,0.175-3.306,0.433-4.944c0.228-1.449,1.443-2.575,2.904-2.648c3.161-0.158,6.324-0.29,9.369-0.427
			c2.823,0.12,5.523,0.231,8.224,0.351c0.642,0.029,1.293,0.032,1.923,0.144c1.375,0.244,2.359,1.356,2.557,2.803
			c0.297,2.188,0.448,4.386,0.406,6.595C481.546,39.897,481.411,41.701,481.133,43.493z"/>
	</g>
	<g>
		<path style="fill-rule:evenodd;clip-rule:evenodd;fill:#999999;" d="M529.299,38.316c-0.375,0.009-0.75,0.001-1.123,0.003
			c-0.398,0.001-0.442,0.044-0.442,0.439c-0.002,1.763-0.001,3.525-0.001,5.29c0,0.176,0.006,0.354-0.001,0.532
			c-0.005,0.255-0.434,0.675-0.702,0.646c-0.367-0.039-0.211-0.355-0.236-0.559c-0.025-0.204-0.005-0.413-0.005-0.621
			c0-1.783-0.007-3.565,0.005-5.348c0-0.284-0.102-0.391-0.379-0.382c-0.365,0.011-0.729,0.001-1.094,0.003
			c-0.407,0.001-0.441,0.035-0.441,0.433c0,2.197,0,4.393,0.001,6.589c0,0.128-0.001,0.256,0.009,0.384
			c0.096,1.223,0.973,1.726,2.075,1.182c0.253-0.125,0.48-0.3,0.754-0.472c0.009,0.06,0.016,0.105,0.021,0.152
			c0.018,0.392,0.041,0.415,0.433,0.415c0.385,0.001,0.769-0.004,1.153,0.003c0.236,0.004,0.336-0.103,0.336-0.337
			c-0.001-2.669-0.002-5.339,0.002-8.008C529.662,38.403,529.539,38.312,529.299,38.316z"/>
		<path style="fill-rule:evenodd;clip-rule:evenodd;fill:#999999;" d="M525.263,37.078c-0.003-0.463-0.007-0.927,0.003-1.389
			c0.003-0.228-0.099-0.321-0.317-0.32c-1.685,0.001-3.369,0.001-5.053-0.001c-0.233,0-0.343,0.095-0.338,0.337
			c0.008,0.423,0,0.847,0.002,1.27c0.001,0.356,0.041,0.396,0.387,0.397c0.46,0.001,0.92,0,1.414,0c0,0.171,0,0.307,0,0.442
			c0,2.906,0,5.812,0,8.717c0.001,0.45,0.024,0.473,0.461,0.473c0.393,0.001,0.789,0.001,1.182,0c0.441,0,0.467-0.025,0.467-0.467
			c0-2.935,0-5.87,0-8.805c0-0.113,0-0.228,0-0.359c0.525,0,1.006-0.004,1.489,0.002C525.167,37.377,525.267,37.292,525.263,37.078z
			"/>
		<path style="fill-rule:evenodd;clip-rule:evenodd;fill:#999999;" d="M530.608,29.855c0.472,0.053,0.772-0.252,0.777-0.81
			c0.009-0.708,0.004-1.417,0.004-2.125c0-0.728,0.003-1.456-0.003-2.184c-0.002-0.379-0.146-0.595-0.438-0.689
			c-0.512-0.165-0.905,0.13-0.908,0.702c-0.008,1.427-0.004,2.854-0.001,4.28c0,0.117,0.017,0.236,0.042,0.351
			C530.142,29.662,530.323,29.822,530.608,29.855z"/>
		<path style="fill-rule:evenodd;clip-rule:evenodd;fill:#999999;" d="M535.432,39.387c-0.359-1.143-1.523-1.515-2.501-0.822
			c-0.057,0.041-0.123,0.069-0.217,0.121c0-1.013-0.007-1.977,0.004-2.941c0.005-0.283-0.104-0.391-0.381-0.381
			c-0.372,0.012-0.747,0.001-1.121,0.002c-0.385,0.003-0.423,0.041-0.425,0.421c0,1.772,0,3.545,0,5.318
			c0,1.832,0,3.663,0.002,5.495c0,0.361,0.04,0.402,0.409,0.403c0.384,0.002,0.767-0.005,1.151,0.003
			c0.217,0.004,0.369-0.052,0.373-0.344c0.119,0.075,0.191,0.125,0.266,0.169c0.727,0.433,1.691,0.333,2.166-0.236
			c0.338-0.407,0.434-0.898,0.436-1.411c0.003-1.595,0.009-3.189-0.007-4.785C535.583,40.061,535.531,39.709,535.432,39.387z
			 M533.632,44.904c-0.002,0.398-0.1,0.516-0.371,0.515c-0.333-0.003-0.544-0.21-0.544-0.545c0-0.738,0-1.477,0-2.217
			c0-0.757-0.001-1.517,0-2.274c0.001-0.274,0.148-0.438,0.415-0.468c0.268-0.031,0.402,0.121,0.468,0.353
			c0.023,0.084,0.032,0.175,0.032,0.263C533.633,41.988,533.636,43.446,533.632,44.904z"/>
		<path style="fill-rule:evenodd;clip-rule:evenodd;fill:#999999;" d="M538.688,43.045c0.749,0,1.499-0.007,2.246,0.003
			c0.263,0.004,0.385-0.086,0.379-0.357c-0.019-0.817,0.004-1.638-0.051-2.453c-0.048-0.735-0.335-1.395-1.005-1.778
			c-1.509-0.861-3.766-0.124-3.839,2.086c-0.047,1.435-0.024,2.877,0.005,4.314c0.014,0.644,0.243,1.236,0.714,1.703
			c0.679,0.674,1.511,0.741,2.388,0.57c0.808-0.156,1.378-0.637,1.577-1.42c0.149-0.583,0.15-1.204,0.201-1.81
			c0.016-0.208-0.148-0.252-0.324-0.251c-0.434,0.002-0.868,0.004-1.302-0.001c-0.237-0.003-0.329,0.101-0.328,0.341
			c0.004,0.333-0.01,0.669-0.046,1.002c-0.033,0.323-0.323,0.484-0.626,0.375c-0.237-0.085-0.283-0.3-0.288-0.504
			c-0.016-0.591-0.006-1.182-0.006-1.822C538.481,43.045,538.584,43.045,538.688,43.045z M538.351,41.365
			c0.018-0.368,0.017-0.719,0.053-1.066c0.026-0.238,0.195-0.344,0.436-0.349c0.235-0.004,0.421,0.087,0.453,0.326
			c0.048,0.354,0.055,0.713,0.078,1.089C539.018,41.365,538.718,41.365,538.351,41.365z"/>
		<path style="fill-rule:evenodd;clip-rule:evenodd;fill:#999999;" d="M530.5,11.87c-12.602,0-22.817,10.297-22.817,23
			c0,12.703,10.216,23,22.817,23c12.6,0,22.816-10.297,22.816-23C553.316,22.168,543.1,11.87,530.5,11.87z M534.294,22.795
			c0.408,0,0.79,0,1.173,0c0.097,0,0.191,0,0.33,0c0,0.161,0,0.287,0,0.412c0,1.873-0.001,3.745,0,5.618
			c0,0.098-0.021,0.204,0.006,0.294c0.056,0.186,0.096,0.465,0.225,0.522c0.155,0.069,0.419-0.005,0.594-0.098
			c0.357-0.188,0.533-0.469,0.524-0.927c-0.032-1.812-0.014-3.626-0.014-5.44c0-0.116,0-0.231,0-0.363c0.521,0,1.007,0,1.509,0
			c0,2.755,0,5.49,0,8.246c-0.493,0-0.98,0-1.496,0c0-0.272,0-0.542,0-0.91c-0.154,0.15-0.246,0.241-0.34,0.332
			c-0.363,0.346-0.773,0.611-1.275,0.696c-0.572,0.097-1.024-0.18-1.165-0.743c-0.063-0.245-0.085-0.506-0.085-0.761
			c-0.007-2.198-0.004-4.396-0.004-6.593C534.275,23.005,534.285,22.927,534.294,22.795z M529.98,22.693
			c0.966-0.239,1.845-0.124,2.518,0.695c0.266,0.321,0.415,0.701,0.419,1.114c0.008,1.607,0.024,3.213-0.007,4.819
			c-0.021,1.094-0.859,1.887-1.951,1.95c-0.825,0.046-1.545-0.139-2.062-0.839c-0.25-0.342-0.391-0.733-0.395-1.153
			c-0.016-0.809-0.007-1.617-0.007-2.425c0,0,0,0-0.001,0c0-0.789-0.018-1.577,0.003-2.364
			C528.526,23.596,529.102,22.909,529.98,22.693z M524.376,19.861c0.054,0.002,0.121,0.158,0.146,0.252
			c0.336,1.315,0.665,2.631,0.996,3.948c0.025,0.092,0.055,0.183,0.082,0.273c0.033,0.002,0.065,0.003,0.099,0.004
			c0.063-0.251,0.131-0.501,0.192-0.753c0.277-1.157,0.558-2.313,0.826-3.474c0.044-0.195,0.113-0.279,0.33-0.272
			c0.469,0.017,0.94,0.005,1.457,0.005c-0.036,0.152-0.057,0.272-0.092,0.388c-0.601,1.955-1.207,3.909-1.801,5.865
			c-0.059,0.194-0.09,0.404-0.091,0.607c-0.009,1.33-0.004,2.66-0.004,3.99c0,0.116,0,0.232,0,0.367c-0.582,0-1.127,0-1.714,0
			c-0.006-0.109-0.014-0.223-0.014-0.336c-0.002-1.261,0.002-2.523-0.007-3.784c-0.001-0.222-0.036-0.451-0.098-0.665
			c-0.614-2.033-1.235-4.064-1.854-6.096c-0.028-0.093-0.049-0.188-0.084-0.331C523.306,19.85,523.842,19.842,524.376,19.861z
			 M543.146,44.167c-0.046,0.953-0.056,1.921-0.245,2.848c-0.321,1.554-1.765,2.646-3.357,2.711
			c-4.914,0.194-9.832,0.222-14.748,0.106c-1.163-0.027-2.326-0.064-3.486-0.115c-1.696-0.074-3.22-1.573-3.336-3.274
			c-0.16-2.342-0.24-4.685-0.158-7.03c0.04-1.162,0.071-2.329,0.222-3.477c0.205-1.578,1.624-2.875,3.21-2.941
			c2.363-0.1,4.728-0.131,7.092-0.182c0.719-0.016,1.44-0.003,2.158-0.003c0-0.018,0-0.034,0-0.051
			c2.916,0.062,5.831,0.125,8.749,0.189c1.586,0.035,2.771,0.718,3.481,2.166c0.333,0.676,0.308,1.416,0.356,2.139
			C543.231,39.557,543.26,41.863,543.146,44.167z"/>
	</g>
</g>
</svg>
